/* XPM */
static char * alex_xpm[] = {
"48 48 6 1",
" 	c None",
".	c #080808",
"+	c #FCFCFC",
"@	c #486028",
"#	c #587834",
"$	c #A4C47C",
"                ....     ....                   ",
"                ....     ....                   ",
"               .++++..  .++++..                 ",
"               .++++..  .++++..                 ",
"  ......       ...++.......++...                ",
"  ......       ...++.......++...                ",
"..@@####............@@###....##@..              ",
"..@@####............@@###....##@..              ",
"..###########################..#@@..            ",
"..###########################..#@@..            ",
".............................#####..            ",
".............................#####..            ",
"                      ...#########@@..          ",
"                ......#####..#######..          ",
"                ......#####..#######..          ",
"           .....######.....$$#######..          ",
"           .....######.....$$#######..          ",
"      .....#####......   ..$$#######..          ",
"      .....#####......   ..$$#######..          ",
"    ..#####.....        .$$##..###@@..          ",
"    ..#####.....        .$$##..###@@..          ",
"      .....           .......###@@..            ",
"      .....           .......###@@..            ",
"                    ..#########.@@..            ",
"                    ..##.......@##..            ",
"                    ..##.......@##..            ",
"                      ...$$$$#####..            ",
"                      ...$$$$#####..            ",
"                        .$$$$#####..         .. ",
"                        .$$$$#####..         .. ",
"                        .$$$$#####..       ..@@.",
"                        .$$$$#####..       ..@@.",
"                        .$$..#####@@..     ..@@.",
"                        .$$..#####@@..     ..@@.",
"                         ..####@..##..   ..##@@.",
"                         ..####@..##..   ..##@@.",
"                         ..####@..####...##@@$$.",
"                        .####@@.$$#######@@$$.. ",
"                        .####@@.$$#######@@$$.. ",
"                        .##@@.....$$$$$$$$$..   ",
"                        .##@@.....$$$$$$$$$..   ",
"                         ..##@@............     ",
"                         ..##@@............     ",
"                      ...######.@@..            ",
"                      ...######.@@..            ",
"                    ..#####@@###..@@..          ",
"                    ..#####@@###..@@..          ",
"                    ..................          "};
